<?xml version="1.0" encoding="utf-8"?>
<!DOCTYPE svg PUBLIC "-//W3C//DTD SVG 1.0//EN" "http://www.w3.org/TR/2001/REC-SVG-20010904/DTD/svg10.dtd">
<svg version="1.0" xmlns="http://www.w3.org/2000/svg" width="279px" height="264px" viewBox="0 0 279 264" preserveAspectRatio="xMidYMid meet">
 <g fill="#1d106a">
  <path d="M85 195 c1.8 -1.8 2 -3.3 2 -16.9 0 -10.5 -0.4 -15.2 -1.2 -15.7 -1.4 -0.9 1.5 -2.2 4.9 -2.3 2.1 -0.1 2.2 0.3 2.5 9.7 l0.3 9.7 53.3 0.3 53.2 0.2 0 -7.1 c0 -6.2 -0.2 -7.1 -2 -7.6 -2.5 -0.7 -2.6 -2.3 -0.1 -2.3 1 0 3.2 -0.3 4.9 -0.6 l3.1 -0.6 0.3 8.8 0.3 8.9 5.8 0.3 5.7 0.3 0 -15.5 c0 -11.4 -0.3 -15.5 -1.2 -15.9 -1.9 -0.6 -0.4 -1.8 3.6 -2.7 l3.6 -0.8 0 8.9 0 9 3.3 -1.7 c4.3 -2.3 13.3 -2.3 17.5 0 4.5 2.4 7.1 8.3 7.2 16.3 l0 6.3 -26 0 c-19.1 -0.1 -26 -0.4 -26 -1.2 0 -0.9 -0.3 -0.9 -1.2 0 -0.9 0.9 -14.2 1.2 -53.5 1.2 l-52.3 0 0 4.5 c0 5.4 -2.5 8.5 -7 8.5 l-3 0 2 -2z m163 -18.5 c0 -7.9 -6.1 -15.5 -12.4 -15.5 -3.8 0 -8 2.9 -10.1 7 -1.5 3 -2 10.1 -0.8 11.3 0.3 0.4 5.7 0.7 12 0.7 l11.3 0 0 -3.5z"/>
  <path d="M194.3 195.3 c-1.9 -0.7 -1.6 -5 0.4 -5.7 2.4 -1 5.1 2 3.7 4.1 -1.2 1.9 -2.3 2.4 -4.1 1.6z"/>
  <path d="M201 192.6 c0 -2.9 2.8 -4.2 4.8 -2.2 2 2 0.8 4.6 -2.3 4.6 -2 0 -2.5 -0.5 -2.5 -2.4z"/>
  <path d="M33.9 188.7 c-4.6 -3.1 -6.9 -8 -6.9 -14.9 0 -7.7 1.5 -10.8 5.2 -10.8 2.1 0 2.8 0.5 2.8 2 0 1.1 -0.6 2 -1.3 2 -0.8 0 -2.3 1 -3.5 2.3 -4.5 4.8 -1.8 13.4 5.8 18.5 4.1 2.8 8.1 2.5 13.8 -1 2 -1.3 4 -2.2 4.5 -2 0.4 0.1 0.7 -0.2 0.7 -0.8 0 -0.5 0.9 -1 2 -1 1.8 0 2 -0.7 2 -8.3 0 -5 -0.5 -8.8 -1.2 -9.5 -1.2 -1.2 -0.8 -1.5 4.5 -2.6 l2.7 -0.6 0 10.9 0 10.9 -4.7 0.6 c-7.1 0.8 -7.3 0.9 -7.3 1.7 0 1.6 -8 4.9 -11.8 4.9 -2.4 0 -5.2 -0.9 -7.3 -2.3z"/>
  <path d="M71.8 183.3 c0.9 -0.3 1.2 -4.8 1.2 -17.3 0 -12.6 -0.3 -16.9 -1.2 -17.3 -1.9 -0.6 -0.7 -1.4 3.5 -2.1 l3.7 -0.7 0 17.9 c0 12.5 0.4 18.2 1.2 19 0.9 0.9 0 1.2 -4.2 1.1 -3 0 -4.9 -0.3 -4.2 -0.6z"/>
  <path d="M43.7 157.8 c-2.3 -1.2 -2.2 -3.5 0.2 -4.8 1.5 -0.7 2.3 -0.6 3.5 0.5 2.7 2.8 -0.3 6.3 -3.7 4.3z"/>
  <path d="M154 141.3 c-7.2 -3.7 -10.3 -8 -17.5 -24.4 -3.2 -7.3 -6.3 -14 -6.8 -14.7 -0.7 -0.9 -4.3 -1.2 -13.2 -1.1 l-12.1 0.1 -16 -8 -15.9 -8.1 23.8 0 c23.2 -0.1 23.8 -0.2 23.2 -2 -1.7 -5.4 -8.5 -30.7 -8.5 -31.7 0 -1.2 7.6 -3.8 8.9 -2.9 0.5 0.3 6 7.8 12.1 16.6 l11.2 16.2 8.2 -0.7 c4.4 -0.3 18.3 -0.6 30.7 -0.7 25.5 -0.1 24.9 -0.2 31.3 7.6 4.1 4.9 4.4 6.5 1.8 8.8 -4.7 4.3 -8 4.7 -36.2 4.7 -19.7 0 -27 0.3 -27 1.1 0 2.5 9.2 17.9 12.1 20.3 2.2 1.8 4.2 2.6 7 2.6 4.7 0 7.2 -1.1 11.7 -5.3 l3.2 -3.1 4.5 4.4 c6.2 6.1 6.5 7.4 2 12 -5.6 5.7 -15.9 10.1 -25.3 10.7 -7 0.4 -8.2 0.2 -13.2 -2.4z"/>
 </g>
 <g fill="#006a39">
  <path d="M120.1 214.3 c1.2 -1.5 1.2 -1.6 -0.3 -1.1 -2.2 0.9 -5.1 -1.4 -4.7 -3.8 0.3 -1.2 1.4 -2 3.2 -2.2 2.3 -0.3 2.7 0 2.7 2.2 0 2.5 0.2 2.6 6.5 2.6 3.6 0 6.5 -0.4 6.5 -0.9 0 -1.3 -2.2 -2.9 -5 -3.4 -2.1 -0.4 -2 -0.4 0.7 -0.6 2.3 -0.1 3.5 0.5 4.3 1.8 2.1 4 1.4 4.6 -5.5 4.3 -5.2 -0.3 -6.6 -0.1 -7.1 1.2 -0.3 0.9 -1.1 1.6 -1.6 1.6 -0.6 0 -0.4 -0.8 0.3 -1.7z m-0.1 -4.3 c0 -2.1 -2.4 -2.8 -3.5 -1 -0.8 1.4 0.3 3 2.1 3 0.8 0 1.4 -0.9 1.4 -2z"/>
  <path d="M141.4 212 l0.1 -4.5 4.6 -0.3 c4 -0.3 4.8 0 6.3 2.3 1 1.5 2.6 2.5 4.1 2.5 2.1 0 2.4 -0.5 2.8 -4.7 l0.3 -4.8 0.2 5.3 0.2 5.3 -4.3 -0.2 c-2.4 -0.2 -4.8 0.1 -5.4 0.4 -1.9 1.2 -4.3 -0.4 -4.3 -3 0 -1.8 -0.5 -2.4 -1.7 -2.1 -1.2 0.2 -2 1.6 -2.4 4.3 l-0.7 4 0.2 -4.5z m9.4 -1.8 c0.3 -1.7 -0.2 -2.2 -1.7 -2.2 -1.4 0 -2.1 0.6 -2.1 1.8 0 3.8 3.3 4.1 3.8 0.4z"/>
  <path d="M94.9 212.8 c-1 -0.4 -1.9 -1.3 -1.9 -2 0 -1 0.2 -1 0.9 0 0.5 0.9 2.5 1.2 5.7 1 l4.9 -0.3 0.7 -4.5 0.6 -4.5 -0.2 4.8 c-0.1 4.8 -0.1 4.8 2.9 4.5 2.7 -0.3 3.1 -0.7 3.6 -4.8 l0.7 -4.5 -0.2 5 -0.1 5 -7.8 0.5 c-4.3 0.3 -8.7 0.2 -9.8 -0.2z"/>
  <path d="M164.2 213.2 c-0.8 -0.2 -1.1 -2.2 -1 -5.5 l0.2 -5.2 0.3 4.8 0.4 4.7 4.1 0 c3.9 0 4 -0.1 2.5 -1.8 -2 -2.2 -2.1 -3.2 -0.5 -3.2 0.6 0 0.8 0.3 0.5 0.7 -0.4 0.3 0.1 1.2 1.1 1.9 1.2 0.9 2.1 0.9 3 0.2 1.1 -0.9 1.1 -1.3 0 -1.9 -1 -0.7 -0.9 -0.9 0.5 -0.9 2.1 0 2.2 0.8 0 3.2 -1.5 1.7 -1.4 1.8 2.5 1.8 l4.1 0 0.4 -4.7 0.3 -4.8 0.2 5.1 0.2 5.2 -4 0.4 c-2.3 0.2 -4.6 0.1 -5.1 -0.3 -0.6 -0.3 -2.7 -0.3 -4.7 0.1 -2.1 0.3 -4.3 0.5 -5 0.2z"/>
  <path d="M66.2 69 l-4.1 -12 3.2 0 c2.7 0.1 5.2 2 15.7 12 l12.5 12 -11.7 0 -11.6 0 -4 -12z"/>
 </g>
</svg>